Patient4_TMGait_0pt8_01_right_20_EMG.mot
version=1
nRows=23
nColumns=33
inDegrees=no
endheader
time	1LAddLong	2LGlutMax	3LGlutMed	4LIliopsoas	5LSemiMemb	6LBicFemLong	7LRecFem	8LVastMed	9LVastLat	10LGasMed	11LTibAnt	12lTibPost	13LPeroneusLong	14LSol	15LExtDigLong	16LFlexDigLong	17RAddLong	18RGlutMax	19RGlutMed	20RIliopsoas	21RSemiMemb	22RBicFemLong	23RRecFem	24RVastMed	25RVastLat	26RGasMed	27RTibAnt	28RTibPost	29RPeroneusLong	30RSol	31RExtDigLong	32RFlexDigLong
23.035	-0.044403	0.57877	0.081787	0.004578	-0.23407	0.55985	-0.23987	-0.014648	0.040436	-0.010376	-0.1268	-0.024261	0.074158	-0.16953	0.1973	-0.018921	0.00473	0.12497	-0.35645	0.055542	0.55924	0.035095	-0.48325	-0.042725	0.042419	-0.021362	0.36057	0.000458	-0.12619	-0.20447	0	-0.016937
23.036	-0.013123	0.51865	0.059814	0.010071	-0.19775	0.49042	-0.24918	-0.003052	0.041809	-0.000305	-0.16541	-0.021667	0.1294	-0.090179	0.057068	-0.009918	0.00351	0.044403	-0.31662	-0.00885	0.56686	0.08667	-0.41809	-0.024567	0.056458	-0.007324	-0.075989	0.007477	0.12238	-0.28259	0.001678	-0.010529
23.037	-0.001526	0.56335	0.050812	0.013428	-0.084534	0.20218	-0.22171	-0.015106	0.069885	0.0177	-0.033722	-0.016937	0.13077	-0.015259	-0.055847	-0.026245	0.009918	0.066223	-0.11581	-0.066833	0.56793	0.075836	-0.41763	-0.04425	0.049286	0.011902	0.27344	0.001068	0.16983	-0.35339	-0.000458	-0.00473
23.038	0.037231	0.5098	0.073547	-0.000916	0.18906	-0.35782	-0.2356	-0.011139	0.096436	0.02121	0.018768	-0.019836	0.093079	0.014954	-0.037842	-0.008087	0.018921	0.087585	-0.076904	-0.08606	0.51559	-0.019073	-0.40436	-0.052338	0.054169	0.001984	-0.17319	0.001526	-0.063629	-0.29526	-0.001678	-0.011292
23.039	0.057678	0.53879	0.089264	-0.010529	0.27054	-0.63538	-0.25955	-0.035095	0.10574	0.021515	0.062866	-0.024567	0.34286	-0.033875	0.051422	-0.016785	0.031281	0.050659	-0.16266	-0.019836	0.45395	-0.17319	-0.41016	-0.031433	0.04425	-0.002899	-0.12131	0.000763	-0.30365	-0.092163	0.000763	-0.007935
23.04	0.059662	0.53513	0.21027	-0.020142	0.14358	-0.62592	-0.24918	-0.035706	0.10056	0.001526	-0.027161	-0.023804	0.345	-0.005188	0.066528	-0.012665	0.016785	0.094147	-0.10254	0.060883	0.51239	-0.19547	-0.39581	-0.03479	0.055084	-0.010376	-0.50583	-0.001984	-0.20615	0.028839	0.002289	-0.010681
23.041	0.037689	0.49988	0.3157	0	0.099335	-0.50659	-0.15213	-0.028687	0.10727	0.017242	-0.12802	-0.025177	0.52139	0.017853	-0.002136	-0.019531	-0.012665	0.080566	-0.075226	0.031891	0.68802	-0.064087	-0.37979	0.01236	0.045776	-0.002136	-0.64606	-0.003204	-0.016479	0.10529	0.002594	0
23.042	0.029602	0.3775	0.21149	0	0.048218	-0.63202	-0.11307	-0.016327	0.05661	0.024109	-0.090332	-0.020905	0.53451	0.04364	-0.014648	-0.021667	0.011292	0.12863	-0.096741	-0.020599	0.75119	0.032196	-0.34836	-0.005798	0.041199	0.003204	-0.64148	-0.003662	0.12482	0.037994	0.001221	-0.007324
23.043	0.023804	0.32791	0.1767	-0.00824	0.030975	-0.51315	-0.097351	-0.01358	0.007019	0.022736	-0.05722	-0.014343	0.015717	0.038757	-0.004883	-0.017395	0.046082	0.11719	-0.1445	-0.047302	0.69275	-0.011902	-0.28473	-0.066986	0.021515	0.00061	-0.3305	-0.002136	0.045319	0.11414	0.00946	-0.00885
23.044	0.032654	0.22324	0.11047	-0.013428	0.002594	-0.19196	-0.10361	-0.004272	-0.027313	0.025024	0.005493	-0.010376	-0.37552	-0.016174	-0.030823	-0.020447	0.023804	0.10834	-0.14099	-0.053558	0.6221	-0.037537	-0.28107	-0.10162	0.019836	-0.001068	-0.22324	0.000458	0.072632	0.25971	0.000305	-0.001678
23.045	0.016785	0.159	0.095978	0.000916	-0.016479	0.019836	-0.10315	-0.009918	0.002136	0.015717	-0.022583	-0.0177	0.071259	-0.055389	-0.002136	-0.014954	-0.034027	0.11368	-0.11017	-0.049896	0.52994	0.035095	-0.26779	-0.069427	0.027313	0.008087	-0.14358	0	0.18051	0.15335	0.002747	-0.000763
23.046	0.003662	0.070038	0.19196	-0.002747	0.10513	0.25284	-0.071716	-0.006714	0.016632	0.005341	0.046234	-0.012817	0.088806	-0.033417	0.015106	-0.014191	-0.04303	0.22751	-0.15793	-0.068207	0.51971	0.15213	-0.26672	-0.052948	0.037384	0.004272	-0.054016	0.005646	0.20416	0.093842	0.000458	-0.010529
23.047	-0.000305	-0.023346	0.058594	-0.012817	0.079651	0.46967	-0.16159	-0.006561	0.037537	0.016174	0.062714	-0.014954	-0.072632	-0.01709	0.042267	-0.012512	-0.059662	0.18249	-0.18921	-0.094757	0.56686	0.21881	-0.26459	-0.04715	0.049896	0.004425	0.005646	0.001831	0.10757	0.072632	-0.001831	-0.009155
23.048	-0.011597	-0.17593	-0.12222	-0.014343	0.000458	0.57251	-0.29495	0.005951	0.075836	0.003052	0.06897	-0.014191	-0.16251	0.054474	0.084991	-0.005951	-0.066833	0.20676	-0.13534	-0.095062	0.58075	0.11963	-0.24078	-0.051422	0.043335	-0.007935	-0.022125	0	-0.043488	0.11826	0.00061	-0.017395
23.049	-0.013275	-0.28122	-0.23789	0.001221	-0.03891	0.63446	-0.28442	0.012665	0.046387	0.028076	0.026245	-0.01297	-0.18356	0.028229	-0.007782	-0.008545	-0.016327	0.2179	-0.10773	0.003662	0.62729	-0.065613	-0.20706	-0.094757	0.024261	-0.012054	0.02243	0.003357	-0.10468	0.12085	0.001068	-0.0177
23.05	-0.019836	-0.29953	-0.27832	-0.009766	-0.06012	0.71869	-0.20752	-0.000763	0.049286	0.038147	0.034485	-0.016632	-0.36331	-0.035858	-0.043335	-0.016327	0.012817	0.2475	-0.16205	0.011292	0.69977	-0.16083	-0.22598	-0.031128	0.044861	-0.010071	0.24994	0.000458	-0.18707	0.042572	0.00061	-0.024109
23.051	-0.020599	-0.28549	-0.27954	-0.018616	-0.046692	0.51209	-0.061951	-0.00412	0.023499	0.049133	0.012665	-0.013885	-0.32776	-0.010529	0.016174	-0.011597	0.039673	0.2298	-0.13321	0.019073	0.69427	-0.095825	-0.23727	-0.043945	0.041046	-0.011749	0.13336	0.002594	-0.098724	-0.085449	0.000763	-0.023499
23.052	-0.000916	-0.25436	-0.25726	-0.010681	0.012817	-0.037384	-0.058594	-0.010986	0.019684	0.051117	0.019226	-0.010529	-0.091095	0.023804	0.097809	-0.007324	0.048523	0.26001	-0.10452	-0.015259	0.5867	-0.015564	-0.21515	-0.003662	0.047302	-0.006561	0.2681	0.001221	0.080261	-0.12604	0.001221	-0.020905
23.053	0.003052	-0.35141	-0.24719	0.010376	0.090179	-0.40482	-0.067291	-0.00473	-0.02655	0.031891	0.008698	-0.010986	0.14633	0.12756	0.091705	0.000305	0.034943	0.22705	-0.048981	0.027618	0.52429	0.092316	-0.17151	-0.09079	0.019531	-0.006561	0.43213	0.005798	0.19653	-0.19516	-0.004272	-0.013275
23.054	0.014191	-0.35217	-0.26581	0.003815	0.046387	-0.79025	-0.073242	-0.006561	-0.070953	0.02243	-0.00473	-0.009918	0.48462	0.12039	0.06012	0.004883	-0.023804	0.17654	-0.087433	0.039673	0.48477	0.090942	-0.13657	-0.16693	0.010986	0.000305	0.32638	0	0.39673	-0.17685	0.001068	-0.014648
23.055	0.021362	-0.39124	-0.21347	0.00412	0.018158	-1.0573	-0.078583	-0.011444	-0.001526	0.045013	0.018311	-0.007477	0.51788	0.009003	0.04364	-0.026703	-0.057373	0.19577	-0.056458	0.056458	0.45624	0.076447	-0.12909	-0.12085	0.005951	0.006104	0.79926	0.000916	0.39627	-0.21027	0	-0.019073
23.056	0.02655	-0.39261	-0.18356	-0.004272	0.080109	-0.84625	-0.035858	-0.00351	0.024109	0.063782	0.051727	-0.006714	0.30594	0.030975	0.05722	-0.014343	-0.05249	0.27954	-0.067139	0.085907	0.46493	0.092773	-0.10361	-0.097809	0.000763	-0.000763	0.044861	0.002136	0.099487	-0.19287	-0.004578	-0.020447
23.057	0.021057	-0.37796	-0.075989	0.004578	0.045013	-0.51575	-0.01709	0.001831	0.17624	0.031128	0.045929	-0.010071	0.20554	0.068512	-0.11047	-0.017853	-0.019379	0.27802	-0.091248	0.075989	0.51056	0.051575	-0.089264	-0.071259	-0.022736	0.001221	-0.61783	0.000305	-0.12436	-0.16464	-0.002594	-0.014648
